<svg width="50" height="50" viewBox="0 0 50 50" fill="none" xmlns="http://www.w3.org/2000/svg">
<path d="M46.2158 24.6582L26.1035 4.56051C25.9587 4.41541 25.7867 4.3003 25.5973 4.22175C25.408 4.14321 25.205 4.10278 25 4.10278C24.795 4.10278 24.592 4.14321 24.4027 4.22175C24.2133 4.3003 24.0413 4.41541 23.8965 4.56051L3.78418 24.6582C3.19824 25.2441 2.86621 26.04 2.86621 26.8701C2.86621 28.5937 4.26758 29.9951 5.99121 29.9951H8.11035V44.3359C8.11035 45.2002 8.80859 45.8984 9.67285 45.8984H21.875V34.9609H27.3437V45.8984H40.3271C41.1914 45.8984 41.8896 45.2002 41.8896 44.3359V29.9951H44.0088C44.8389 29.9951 45.6348 29.6679 46.2207 29.0771C47.4365 27.8564 47.4365 25.8789 46.2158 24.6582Z" fill="#B8D8C0"/>
</svg>
