<svg width="50" height="50" viewBox="0 0 50 50" fill="none" xmlns="http://www.w3.org/2000/svg">
<path d="M41.3062 13.2688L22.1468 19.4938C21.9219 19.6387 21.6638 19.7237 21.3968 19.7407L14.8155 21.8751H42.1874C42.6018 21.8751 42.9992 22.0397 43.2923 22.3327C43.5853 22.6257 43.7499 23.0232 43.7499 23.4376V39.0626C43.7499 41.1346 42.9268 43.1217 41.4617 44.5868C39.9966 46.052 38.0094 46.8751 35.9374 46.8751H14.0624C11.9904 46.8751 10.0033 46.052 8.53814 44.5868C7.07302 43.1217 6.24992 41.1346 6.24992 39.0626V23.4376C6.24992 23.1063 6.35304 22.7969 6.53117 22.5407L5.92179 20.6594C5.28167 18.689 5.45047 16.5449 6.39107 14.6989C7.33166 12.8529 8.96701 11.456 10.9374 10.8157L31.7405 4.05631C33.711 3.41619 35.8551 3.58499 37.7011 4.52559C39.5471 5.46618 40.9439 7.10154 41.5843 9.07194L42.3093 11.3001C42.4373 11.6942 42.4036 12.123 42.2154 12.4922C42.0273 12.8614 41.7002 13.1407 41.3062 13.2688ZM29.6062 13.7844L33.6218 6.82819C33.3107 6.86426 33.004 6.93126 32.7062 7.02819L28.8155 8.29069L24.728 15.3688L29.603 13.7844H29.6062ZM36.778 7.60006C36.7588 7.63944 36.7379 7.67801 36.7155 7.71569L34.0468 12.3407L38.853 10.7782L38.6124 10.0376C38.2911 9.04258 37.6452 8.18424 36.778 7.60006ZM24.3718 9.73444L19.4968 11.3188L15.4062 18.3969L20.2812 16.8126L24.3749 9.73444H24.3718ZM9.13429 20.4376L10.9687 19.8438L15.053 12.7626L11.903 13.7876C10.7208 14.1718 9.73959 15.0099 9.17523 16.1175C8.61087 17.2251 8.50959 18.5115 8.89367 19.6938L9.13429 20.4376Z" fill="#B8D8C0"/>
</svg>
