<svg width="50" height="50" viewBox="0 0 50 50" fill="none" xmlns="http://www.w3.org/2000/svg">
<g clip-path="url(#clip0_1038_58)">
<path d="M48.0469 34.8945H1.95312C0.878906 34.8945 0 34.0156 0 32.9414V1.95312C0 0.878906 0.878906 0 1.95312 0H48.0469C49.1211 0 50 0.878906 50 1.95312V32.9414C50 34.0156 49.1211 34.8945 48.0469 34.8945Z" fill="#CBCDCC"/>
<path d="M2.63281 3.08594H28.7031V3.87891H2.63281V3.08594ZM44.2617 3.08594H47.3633V3.87891H44.2617V3.08594ZM34.9805 3.08594H42.6445V3.87891H34.9805V3.08594ZM2.63281 5.37109H4.59766V6.16406H2.63281V5.37109ZM38.8242 5.37109H47.3633V6.16406H38.8242V5.37109ZM7.24219 5.37109H14.9063V6.16406H7.24219V5.37109ZM4.00391 7.65234H10.9375V8.44531H4.00391V7.65234ZM34.9805 7.65234H42.6445V8.44531H34.9805V7.65234ZM2.63281 9.9375H6.1875V10.7305H2.63281V9.9375ZM38.4648 9.9375H46.1289V10.7305H38.4648V9.9375ZM4.51953 12.2188H26.6016V13.0117H4.51953V12.2188ZM34.9805 12.2188H42.6445V13.0117H34.9805V12.2188ZM34.9805 14.5039H42.6445V15.2969H34.9805V14.5039Z" fill="#0BFF0B"/>
<path d="M19.625 9.98047H40.0039V10.7734H19.625V9.98047ZM2.63281 14.8789H28.7031V15.6719H2.63281V14.8789ZM44.2617 14.8789H47.3633V15.6719H44.2617V14.8789ZM34.9805 14.8789H42.6445V15.6719H34.9805V14.8789ZM2.63281 17.1602H4.59766V17.9531H2.63281V17.1602ZM45.1133 20.3555H47.0781V21.1484H45.1133V20.3555ZM38.8242 17.1602H47.3633V17.9531H38.8242V17.1602ZM2.8125 27.1094H10.4766V27.9023H2.8125V27.1094ZM4.00391 19.4453H10.9375V20.2383H4.00391V19.4453ZM34.9805 19.4453H42.6445V20.2383H34.9805V19.4453ZM2.63281 21.7266H6.1875V22.5195H2.63281V21.7266ZM34.9805 21.7266H42.6445V22.5195H34.9805V21.7266ZM4.51953 24.0117H26.6016V24.8047H4.51953V24.0117Z" fill="#0BFF0B"/>
<path d="M23.7617 24.0117H45.8437V24.8047H23.7617V24.0117Z" fill="#0BFF0B"/>
<path d="M34.9805 24.0117H42.6445V24.8047H34.9805V24.0117ZM21.0781 26.2969H47.1484V27.0898H21.0781V26.2969Z" fill="#0BFF0B"/>
<path d="M34.9805 26.2969H42.6445V27.0898H34.9805V26.2969Z" fill="#0BFF0B"/>
<path d="M11.0586 44.3477C8.51562 35.6211 8.51562 17.7305 8.51562 17.7305L41.3281 17.6016C41.3281 17.6016 41.3281 33.8086 39.4219 44.2383L11.0586 44.3477V44.3477Z" fill="#6D4C41"/>
<path d="M7.90234 46.1289V49.9922H41.9414V46.1289C41.9414 40.2032 33.5859 37.1953 25.0508 37.2071C16.5664 37.2188 7.90234 39.8555 7.90234 46.1289V46.1289Z" fill="#651FFF"/>
<path d="M24.9219 33.4414C33.9828 33.4414 41.3281 26.5333 41.3281 18.0117C41.3281 9.49014 33.9828 2.58203 24.9219 2.58203C15.861 2.58203 8.51562 9.49014 8.51562 18.0117C8.51562 26.5333 15.861 33.4414 24.9219 33.4414Z" fill="#6D4C41"/>
<path d="M24.9219 35.2539H21.375V39C21.375 40.6953 22.8203 42.0703 24.6016 42.0703H25.2461C27.0273 42.0703 28.4727 40.6953 28.4727 39V35.2539H24.9219Z" fill="#E49500"/>
<path d="M24.9219 5.30078C15.4102 5.30078 12.9219 12.6719 12.9219 23.0313C12.9219 33.3867 20.3008 36.5469 24.9219 36.5469C29.543 36.5469 36.9219 33.3867 36.9219 23.0313C36.9219 12.6758 34.4336 5.30078 24.9219 5.30078Z" fill="#FFC41B"/>
<path d="M28.5664 30.5117H21.3555C20.9414 30.5117 20.7656 30.7891 21.0391 31.207C21.4219 31.7891 22.8398 32.9102 24.9609 32.9102C27.082 32.9102 28.5 31.7891 28.8828 31.207C29.1602 30.7891 28.9805 30.5117 28.5664 30.5117ZM20.8633 23.7227C20.8633 24.832 20.1211 25.7344 19.1992 25.7344C18.2813 25.7344 17.5312 24.8359 17.5312 23.7227C17.5312 22.6094 18.2773 21.711 19.1992 21.711C20.1172 21.707 20.8633 22.6094 20.8633 23.7227V23.7227ZM29.0625 23.7227C29.0625 24.832 29.8047 25.7344 30.7305 25.7344C31.6484 25.7344 32.3945 24.8359 32.3945 23.7227C32.3945 22.6094 31.6484 21.711 30.7305 21.711C29.8047 21.707 29.0625 22.6094 29.0625 23.7227Z" fill="black"/>
<path d="M26.6836 27.4493C26.0703 27.6211 25.4336 27.7071 24.9414 27.7071C24.4492 27.7071 23.8125 27.6211 23.1992 27.4493C22.9375 27.375 22.832 27.625 22.9297 27.7891C23.125 28.1329 23.9063 28.8204 24.9414 28.8204C25.9766 28.8204 26.7578 28.129 26.9531 27.7891C27.0508 27.6211 26.9453 27.375 26.6836 27.4493Z" fill="#E49500"/>
<path d="M28.4141 13.4492C27.1523 14.6641 20.8789 20.3164 12.2344 21.7891V10.1992C12.2344 10.1992 15.9648 2.79688 24.918 2.79688C33.8711 2.79688 37.6016 10.3867 37.6016 10.3867V21.7891C37.6016 21.7891 31.7344 19.5391 28.7891 13.5195C28.7734 13.4856 28.7499 13.4559 28.7204 13.433C28.691 13.41 28.6564 13.3944 28.6197 13.3876C28.583 13.3807 28.5452 13.3827 28.5094 13.3934C28.4736 13.4041 28.4409 13.4233 28.4141 13.4492V13.4492Z" fill="#6D4C41"/>
<path d="M25.1562 48.2734C34.5149 48.2734 42.1016 41.4021 42.1016 32.9258C42.1016 24.4495 34.5149 17.5781 25.1562 17.5781C15.7976 17.5781 8.21094 24.4495 8.21094 32.9258C8.21094 41.4021 15.7976 48.2734 25.1562 48.2734Z" fill="url(#paint0_radial_1038_58)"/>
<path d="M6.79696 42.5899C6.79696 42.5899 6.59383 42.3125 5.93367 42.2813C5.87899 42.1993 5.8243 42.125 5.77352 42.0547C5.67196 41.918 5.41414 41.3282 4.43367 41.8633C4.11727 42.0352 4.00789 42.1915 4.05867 42.4141C4.01961 42.461 3.9493 42.5157 3.83992 42.4727C3.50008 42.0938 3.07821 42.0118 2.58992 42.3946C2.03524 42.8282 2.03524 43.1368 2.1368 43.4454H2.13289C2.13289 43.4454 2.10946 43.6602 1.9493 43.6407C1.78133 43.4961 1.57821 43.4961 1.2618 43.7266C0.40633 44.3438 0.761799 44.9297 0.902424 45.2735C0.882893 45.3047 0.851643 45.3282 0.796955 45.3243C0.68758 45.2657 0.543049 45.2657 0.351643 45.375C-0.101483 45.6329 -0.0350763 46.4883 0.09383 46.7696C0.234455 47.0743 1.0118 48.1446 1.28133 48.4454C1.55086 48.7461 2.09383 48.7227 2.36336 48.4102C2.55867 48.1836 2.70321 47.9883 2.2618 47.5821C2.25008 47.5704 2.23446 47.5547 2.21883 47.543L2.30867 47.5079C2.55477 47.8321 2.91805 48.1797 3.43367 47.8868C3.69149 47.7383 3.91805 47.4024 3.71102 46.9454L4.0118 46.8243C4.03524 46.8594 4.05867 46.8907 4.08211 46.9258C4.35946 47.3243 4.94149 47.1836 5.27352 46.9961L5.07821 47.2149L4.73836 47.3555C4.73836 47.3555 4.19149 47.8555 4.71883 48.4102C5.02352 48.7305 5.3868 48.5352 5.98836 48.293C6.44539 48.1094 8.24227 47.0313 8.28133 46.6915C8.28133 46.6915 8.63289 45.3438 8.33211 44.5665C8.1368 44.0508 7.49227 43.2579 6.79696 42.5899V42.5899Z" fill="#FAC036"/>
<path d="M6.22269 42.3125C6.22269 42.3125 5.97659 42.2852 5.93363 42.2812C6.34769 42.8984 6.83206 43.8164 7.02738 44.1914C7.33988 44.793 7.54691 45.3828 6.98831 45.8047C6.7305 46 6.49613 46.0273 6.30472 45.9492C6.11722 45.7969 5.94925 45.4844 5.94925 45.4844C5.21097 44.1289 4.69925 43.4492 4.69925 43.4492C4.64847 43.3906 4.53909 43.2031 4.38675 43.1094C4.19144 42.9922 4.25003 43.1992 4.25003 43.1992C5.10941 44.5391 5.63284 45.6094 5.63284 45.6094C5.8555 46.0156 5.81644 46.3047 5.75394 46.4648C5.67972 46.6602 5.25394 46.9336 5.25394 46.9336C4.38675 47.4531 3.98831 46.7617 3.98831 46.7617C3.98831 46.7617 3.4805 46.125 2.62894 44.5352C2.62894 44.5352 2.49613 44.3164 2.41409 44.4687C2.41409 44.4687 2.46097 44.7383 2.58597 44.9922C2.58597 44.9922 2.97269 45.9141 3.72659 46.9766C3.91019 47.418 3.69144 47.7422 3.43753 47.8906C3.12894 48.0664 2.87503 48.0117 2.668 47.8711C2.47659 47.6836 2.02738 47.1719 1.37113 45.9922C1.37113 45.9922 1.24222 45.6992 1.17972 45.8008C1.17972 45.8008 1.11331 45.8789 1.293 46.332C1.293 46.332 1.55472 46.9844 2.20706 47.8516C2.44925 48.1875 2.42191 48.3516 2.32425 48.4531C2.1055 48.6719 1.74222 48.7227 1.47269 48.5938C1.70706 48.7383 2.11331 48.9141 2.50784 48.668C2.50784 48.668 2.76175 48.4844 2.78128 48.2891C3.21097 48.5273 3.80472 48.082 3.80472 48.082C4.08206 47.8672 4.15628 47.6289 4.14847 47.4219C4.71878 47.7617 5.44925 47.293 5.44925 47.293C6.08988 46.9297 6.21488 46.5469 6.21488 46.2969C6.54691 46.5039 6.95706 46.3477 6.95706 46.3477C7.67972 46.0273 7.65628 45.3203 7.65628 45.3203C7.62503 44.3437 6.67972 42.9609 6.22269 42.3125V42.3125Z" fill="#E48C15"/>
<path d="M7.34375 45.4375C7.34765 45.4961 7.34765 45.5547 7.34765 45.6133C7.34765 47.2227 6.57031 48.5234 5.61719 48.5234C4.66016 48.5234 3.88672 47.2187 3.88672 45.6133C3.88672 45.5547 3.89062 45.4961 3.89062 45.4375C2.94531 46.1211 2.3125 47.3516 2.3125 48.7539V49.0078C2.3125 49.5586 2.69141 50.0039 3.15625 50.0039H8.07812C8.54297 50.0039 8.92187 49.5586 8.92187 49.0078V48.7539C8.92187 47.3477 8.28906 46.1211 7.34375 45.4375Z" fill="#E0E0E0"/>
<path d="M5.61714 48.5234C9.14839 48.5234 7.34761 47.2187 7.34761 45.6133C7.34761 45.5547 7.3437 45.4961 7.3437 45.4375C6.83979 45.0742 6.24995 44.8594 5.61714 44.8594C4.98432 44.8594 4.39448 45.0742 3.89057 45.4375C3.88667 45.4961 3.88667 45.5547 3.88667 45.6133C3.88667 47.2227 2.07026 48.5234 5.61714 48.5234Z" fill="#BDBDBD"/>
<path d="M1.6368 48.6368L1.68758 48.6485C1.72664 48.6524 1.76961 48.6563 1.80867 48.6563C1.83211 48.6563 1.85555 48.6524 1.87899 48.6485C1.89852 48.6446 1.91805 48.6446 1.93758 48.6407C1.96492 48.6368 1.98836 48.629 2.0157 48.6211C2.03133 48.6172 2.04305 48.6133 2.05867 48.6055C2.15242 48.5743 2.23836 48.5235 2.30867 48.4571L2.33211 48.4336C2.42586 48.3321 2.4493 48.168 2.21102 47.8399C1.55477 46.9727 1.29695 46.3204 1.29695 46.3204C1.11727 45.8633 1.18367 45.7891 1.18367 45.7891C1.24617 45.6875 1.37508 45.9805 1.37508 45.9805C2.02742 47.1524 2.47274 47.6641 2.66414 47.8555C2.67195 47.8633 2.68367 47.8672 2.69539 47.875C2.73445 47.8985 2.77352 47.9219 2.81258 47.9376C2.8282 47.9454 2.84774 47.9493 2.86336 47.9571C2.90242 47.9688 2.94149 47.9766 2.98055 47.9844C3.00008 47.9883 3.01961 47.9883 3.04305 47.9922C3.08602 47.9922 3.12899 47.9883 3.17196 47.9805C3.19149 47.9766 3.21102 47.9766 3.23445 47.9688C3.30086 47.9493 3.36727 47.9258 3.44149 47.8829C3.47274 47.8633 3.50399 47.8438 3.53524 47.8204C3.55086 47.8086 3.56258 47.793 3.57821 47.7813C3.59383 47.7696 3.60946 47.754 3.62117 47.7422C3.64071 47.7227 3.65242 47.6993 3.67195 47.6797C3.67977 47.668 3.68758 47.6602 3.69539 47.6485C3.71102 47.6251 3.72664 47.5938 3.73836 47.5665C3.74227 47.5586 3.75008 47.5469 3.75399 47.5391C3.7657 47.5079 3.77352 47.4766 3.78133 47.4454C3.78524 47.4336 3.78914 47.4258 3.78914 47.4141C3.79696 47.3829 3.79696 47.3477 3.79696 47.3126C3.79696 47.3008 3.80086 47.2891 3.80086 47.2774C3.80086 47.2422 3.79305 47.2071 3.78914 47.168C3.78524 47.1524 3.78524 47.1407 3.78133 47.125C3.77352 47.0899 3.75789 47.0508 3.74617 47.0157C3.74227 47 3.73446 46.9844 3.73055 46.9688C2.98055 45.9102 2.59383 44.9883 2.59383 44.9883C2.46883 44.7305 2.42195 44.4649 2.42195 44.4649C2.50399 44.3125 2.6368 44.5313 2.6368 44.5313C3.48836 46.1211 3.99617 46.7579 3.99617 46.7579C3.99617 46.7579 4.39461 47.4493 5.2618 46.9297C5.2618 46.9297 5.69149 46.6524 5.7618 46.461C5.8243 46.3008 5.86336 46.0118 5.6407 45.6055C5.6407 45.6055 5.11727 44.5352 4.25789 43.1954C4.25789 43.1954 4.1993 42.9844 4.39461 43.1055C4.54696 43.1993 4.65633 43.3868 4.70711 43.4454C4.70711 43.4454 5.21492 44.125 5.95711 45.4805C5.95711 45.4805 6.12117 45.793 6.31258 45.9454C6.50008 46.0235 6.73836 45.9961 6.99617 45.8008C7.55477 45.379 7.34774 44.7891 7.03524 44.1875C6.83992 43.8125 6.35555 42.8946 5.94149 42.2774C5.97664 42.2813 6.1368 42.3008 6.20321 42.3047C6.12508 42.2891 6.03914 42.2774 5.94149 42.2735C5.8868 42.1915 5.83211 42.1172 5.78133 42.0469C5.67977 41.9102 5.42196 41.3204 4.44149 41.8555C4.12508 42.0274 4.01571 42.1836 4.06649 42.4063C4.02742 42.4532 3.95711 42.5079 3.84774 42.4649C3.50789 42.086 3.08602 42.004 2.59774 42.3868C2.04305 42.8204 2.04305 43.129 2.14461 43.4375H2.1407C2.1407 43.4375 2.11727 43.6524 1.95711 43.6329C1.78914 43.4883 1.58602 43.4883 1.26961 43.7188C0.414142 44.336 0.769611 44.9219 0.910236 45.2657C0.890705 45.2969 0.859455 45.3204 0.804767 45.3165C0.695392 45.2579 0.550861 45.2579 0.359455 45.3672C-0.09367 45.625 -0.0272638 46.4805 0.101642 46.7618C0.242267 47.0665 1.01961 48.1368 1.28914 48.4376C1.35164 48.504 1.42586 48.5547 1.50789 48.5899C1.52352 48.5977 1.54305 48.6055 1.55867 48.6094C1.58211 48.6251 1.60945 48.629 1.6368 48.6368V48.6368Z" fill="#FAC036"/>
<path d="M5.08203 47.2109L5.27734 46.9922C4.94531 47.1797 4.36719 47.3203 4.08594 46.9219C4.0625 46.8867 4.03906 46.8555 4.01562 46.8203L3.71484 46.9414C3.71875 46.9492 3.71875 46.957 3.72266 46.9648C3.72266 46.9648 3.72266 46.9687 3.72656 46.9687C3.73437 46.9844 3.73437 46.9961 3.74219 47.0117C3.75391 47.0508 3.76953 47.0859 3.77734 47.1211C3.78125 47.1367 3.78125 47.1484 3.78516 47.1641C3.79297 47.1992 3.79688 47.2383 3.79688 47.2734C3.79688 47.2852 3.79687 47.2969 3.79297 47.3086C3.79297 47.3437 3.78906 47.3789 3.78516 47.4102C3.78516 47.4219 3.78125 47.4297 3.77734 47.4414C3.76953 47.4727 3.76172 47.5039 3.75 47.5352C3.74609 47.5469 3.73828 47.5547 3.73438 47.5625C3.72266 47.5898 3.70703 47.6172 3.69141 47.6445C3.68359 47.6562 3.67578 47.6641 3.66797 47.6758C3.65234 47.6992 3.63672 47.7187 3.61719 47.7383C3.60547 47.7539 3.58984 47.7656 3.57422 47.7773C3.55859 47.7891 3.54687 47.8047 3.53125 47.8164C3.44208 47.8858 3.33975 47.9363 3.23047 47.9648C3.21094 47.9687 3.19141 47.9727 3.16797 47.9766C3.125 47.9844 3.07813 47.9883 3.03906 47.9883C3.01953 47.9883 2.99609 47.9844 2.97656 47.9805C2.9375 47.9766 2.89844 47.9648 2.85938 47.9531C2.83984 47.9453 2.82422 47.9414 2.80859 47.9336C2.76953 47.918 2.73047 47.8945 2.69141 47.8711L2.66797 47.8594L2.66406 47.8555C2.52734 47.7617 2.41016 47.6289 2.3125 47.5L2.22266 47.5352C2.23828 47.5508 2.25391 47.5625 2.26563 47.5742C2.70703 47.9805 2.55859 48.1758 2.36719 48.4023C2.35547 48.418 2.34375 48.4258 2.33594 48.4375C2.33594 48.4375 2.33203 48.4414 2.33203 48.4453C2.32422 48.4492 2.32031 48.457 2.3125 48.4609C2.23828 48.5273 2.15625 48.5781 2.0625 48.6094C2.04688 48.6133 2.03516 48.6211 2.01953 48.625C1.99219 48.6328 1.96875 48.6367 1.94141 48.6445C1.92187 48.6484 1.90234 48.6484 1.88281 48.6523C1.85938 48.6562 1.83594 48.6562 1.8125 48.6602C1.77344 48.6602 1.73047 48.6602 1.69141 48.6523C1.67187 48.6484 1.65625 48.6445 1.64062 48.6406C1.61406 48.6364 1.58792 48.6299 1.5625 48.6211C1.54297 48.6133 1.52734 48.6094 1.51172 48.6016C1.50391 48.5977 1.49219 48.5937 1.48438 48.5898C1.71875 48.7344 2.125 48.9102 2.51953 48.6641C2.51953 48.6641 2.77344 48.4805 2.79297 48.2852C3.22266 48.5234 3.81641 48.0781 3.81641 48.0781C4.09375 47.8633 4.16797 47.625 4.16016 47.418C4.30078 47.5039 4.45312 47.5352 4.60547 47.5391C4.67187 47.4258 4.74609 47.3594 4.74609 47.3594L5.08203 47.2109V47.2109ZM6.22266 42.3125C6.22266 42.3125 6.21094 42.3125 6.19531 42.3086C6.20312 42.3125 6.21484 42.3125 6.22266 42.3125C6.22266 42.3125 6.22266 42.3164 6.22266 42.3125Z" fill="#E48C15"/>
<path d="M3.78128 47.1641C3.78909 47.1992 3.793 47.2383 3.793 47.2734C3.793 47.2383 3.78519 47.1992 3.78128 47.1641ZM3.78909 47.3086C3.78909 47.3438 3.78519 47.3789 3.78128 47.4102C3.78909 47.3789 3.78909 47.3438 3.78909 47.3086ZM3.66409 47.6758C3.64847 47.6992 3.63284 47.7188 3.61331 47.7383C3.63284 47.7188 3.64847 47.6953 3.66409 47.6758ZM3.7305 47.5625C3.71878 47.5898 3.70316 47.6172 3.68753 47.6445C3.70316 47.6172 3.71878 47.5898 3.7305 47.5625ZM3.73831 47.0117C3.75003 47.0508 3.76566 47.0859 3.77347 47.1211C3.76566 47.0859 3.75394 47.0508 3.73831 47.0117ZM1.87894 48.6484C1.8555 48.6523 1.83206 48.6523 1.80863 48.6563C1.83206 48.6523 1.8555 48.6484 1.87894 48.6484ZM1.68753 48.6445C1.668 48.6406 1.65238 48.6367 1.63675 48.6328C1.65238 48.6406 1.668 48.6445 1.68753 48.6445ZM1.18363 45.7891C1.18363 45.7891 1.11722 45.8672 1.29691 46.3203C1.29691 46.3203 1.55863 46.9727 2.21097 47.8398C2.44925 48.1719 2.42581 48.332 2.33206 48.4336C2.34378 48.4219 2.3555 48.4141 2.36331 48.4063C2.55472 48.1797 2.70316 47.9844 2.26175 47.5781C2.25003 47.5664 2.23441 47.5508 2.21878 47.5391L2.30863 47.5039C2.40628 47.6328 2.52347 47.7617 2.66019 47.8594C2.46488 47.668 2.01956 47.1563 1.37113 45.9844C1.37113 45.9805 1.24222 45.6875 1.18363 45.7891V45.7891ZM5.45706 47.2813C6.09769 46.918 6.22269 46.5352 6.22269 46.2852C6.55472 46.4922 6.96487 46.3359 6.96487 46.3359C7.68753 46.0156 7.66409 45.3086 7.66409 45.3086C7.62894 44.3438 6.68362 42.9648 6.22269 42.3164C6.21097 42.3125 6.20316 42.3125 6.19144 42.3086C6.12894 42.3008 5.96488 42.2852 5.92972 42.2812C6.34378 42.8984 6.82816 43.8164 7.02347 44.1914C7.33597 44.793 7.543 45.3828 6.98441 45.8047C6.72659 46 6.49222 46.0273 6.30081 45.9492C6.11331 45.7969 5.94534 45.4844 5.94534 45.4844C5.20706 44.1289 4.69534 43.4492 4.69534 43.4492C4.64456 43.3906 4.53519 43.2031 4.38284 43.1094C4.18753 42.9922 4.24612 43.1992 4.24612 43.1992C5.1055 44.5391 5.62894 45.6094 5.62894 45.6094C5.85159 46.0156 5.81253 46.3047 5.75003 46.4648C5.67581 46.6602 5.25003 46.9336 5.25003 46.9336C4.38284 47.4531 3.98441 46.7617 3.98441 46.7617C3.98441 46.7617 3.47659 46.125 2.62503 44.5352C2.62503 44.5352 2.49222 44.3164 2.41019 44.4688C2.41019 44.4688 2.45706 44.7383 2.58206 44.9922C2.58206 44.9922 2.96878 45.9141 3.71878 46.9727C3.71488 46.9648 3.71488 46.957 3.71097 46.9492L4.01175 46.8281C4.03519 46.8633 4.05862 46.8945 4.08206 46.9297C4.35941 47.3281 4.94144 47.1875 5.27347 47L5.07816 47.2188L4.73831 47.3594C4.73831 47.3594 4.66409 47.4258 4.59769 47.5391C5.043 47.5469 5.45706 47.2813 5.45706 47.2813V47.2813ZM3.57034 47.7773C3.55472 47.7891 3.543 47.8047 3.52738 47.8164C3.543 47.8047 3.55863 47.793 3.57034 47.7773ZM1.55472 48.6133C1.53519 48.6055 1.51956 48.6016 1.50394 48.5938C1.51956 48.6016 1.53909 48.6094 1.55472 48.6133ZM3.43753 47.8828C3.36722 47.9258 3.29691 47.9492 3.2305 47.9688C3.29691 47.9492 3.36331 47.9219 3.43753 47.8828ZM2.97659 47.9844C2.93753 47.9805 2.89847 47.9688 2.85941 47.957C2.89847 47.9688 2.93753 47.9766 2.97659 47.9844ZM2.80863 47.9375C2.76956 47.9219 2.7305 47.8984 2.69144 47.875C2.7305 47.8984 2.76956 47.9219 2.80863 47.9375ZM2.01566 48.6211C1.98831 48.6289 1.96488 48.6328 1.93753 48.6406C1.96488 48.6367 1.99222 48.6289 2.01566 48.6211Z" fill="#E48C15"/>
<path d="M48.3633 48.6368L48.3125 48.6485C48.2735 48.6524 48.2305 48.6563 48.1914 48.6563C48.168 48.6563 48.1446 48.6524 48.1211 48.6485C48.1016 48.6446 48.0821 48.6446 48.0625 48.6407C48.0352 48.6368 48.0118 48.629 47.9844 48.6211C47.9695 48.6177 47.9551 48.6124 47.9414 48.6055C47.8483 48.5748 47.763 48.5241 47.6914 48.4571L47.668 48.4336C47.5743 48.3321 47.5508 48.168 47.7891 47.8399C48.4453 46.9727 48.7032 46.3204 48.7032 46.3204C48.8829 45.8633 48.8164 45.7891 48.8164 45.7891C48.7539 45.6875 48.625 45.9805 48.625 45.9805C47.9727 47.1524 47.5274 47.6641 47.336 47.8555C47.3282 47.8633 47.3164 47.8672 47.3047 47.875C47.2657 47.8985 47.2266 47.9219 47.1875 47.9376C47.1719 47.9454 47.1524 47.9493 47.1368 47.9571C47.0977 47.9688 47.0586 47.9766 47.0196 47.9844C47 47.9883 46.9805 47.9883 46.9571 47.9922C46.9141 47.9922 46.8711 47.9883 46.8282 47.9805C46.8086 47.9766 46.7891 47.9766 46.7657 47.9688C46.6993 47.9493 46.6329 47.9258 46.5586 47.8829C46.5274 47.8633 46.4961 47.8438 46.4649 47.8204C46.4493 47.8086 46.4375 47.793 46.4219 47.7813C46.4063 47.7696 46.3907 47.754 46.3789 47.7422C46.3594 47.7227 46.3477 47.6993 46.3282 47.6797C46.3204 47.668 46.3125 47.6602 46.3047 47.6485C46.2881 47.6224 46.2737 47.595 46.2618 47.5665C46.2579 47.5586 46.25 47.5469 46.2461 47.5391C46.2344 47.5079 46.2266 47.4766 46.2188 47.4454C46.2149 47.4336 46.211 47.4258 46.211 47.4141C46.2032 47.3829 46.2032 47.3477 46.2032 47.3126C46.2032 47.3008 46.1993 47.2891 46.1993 47.2774C46.1993 47.2422 46.2071 47.2071 46.211 47.168C46.2149 47.1524 46.2149 47.1407 46.2188 47.125C46.2266 47.0899 46.2422 47.0508 46.2539 47.0157C46.2579 47 46.2657 46.9844 46.2696 46.9688C47.0196 45.9102 47.4063 44.9883 47.4063 44.9883C47.5313 44.7305 47.5782 44.4649 47.5782 44.4649C47.4961 44.3125 47.3633 44.5313 47.3633 44.5313C46.5118 46.1211 46.0039 46.7579 46.0039 46.7579C46.0039 46.7579 45.6055 47.4493 44.7383 46.9297C44.7383 46.9297 44.3086 46.6524 44.2383 46.461C44.1758 46.3008 44.1368 46.0118 44.3594 45.6055C44.3594 45.6055 44.8829 44.5352 45.7422 43.1954C45.7422 43.1954 45.8008 42.9844 45.6055 43.1055C45.4532 43.1993 45.3438 43.3868 45.293 43.4454C45.293 43.4454 44.7852 44.125 44.043 45.4805C44.043 45.4805 43.8789 45.793 43.6875 45.9454C43.5 46.0235 43.2618 45.9961 43.0039 45.8008C42.4453 45.379 42.6524 44.7891 42.9649 44.1875C43.1602 43.8125 43.6446 42.8946 44.0586 42.2774C44.0235 42.2813 43.8633 42.3008 43.7969 42.3047C43.875 42.2891 43.961 42.2774 44.0586 42.2735C44.1133 42.1915 44.168 42.1172 44.2188 42.0469C44.3203 41.9102 44.5782 41.3204 45.5586 41.8555C45.875 42.0274 45.9844 42.1836 45.9336 42.4063C45.9727 42.4532 46.043 42.5079 46.1524 42.4649C46.4922 42.086 46.9141 42.004 47.4024 42.3868C47.9571 42.8204 47.9571 43.129 47.8555 43.4375H47.8594C47.8594 43.4375 47.8829 43.6524 48.043 43.6329C48.211 43.4883 48.4141 43.4883 48.7305 43.7188C49.586 44.336 49.2305 44.9219 49.0899 45.2657C49.1094 45.2969 49.1407 45.3204 49.1954 45.3165C49.3047 45.2579 49.4493 45.2579 49.6407 45.3672C50.0938 45.625 50.0274 46.4805 49.8985 46.7618C49.7579 47.0665 48.9805 48.1368 48.711 48.4376C48.6485 48.504 48.5743 48.5547 48.4922 48.5899C48.4766 48.5977 48.4571 48.6055 48.4414 48.6094C48.418 48.6251 48.3907 48.629 48.3633 48.6368V48.6368Z" fill="#FAC036"/>
<path d="M44.918 47.2109L44.7227 46.9922C45.0547 47.1797 45.6328 47.3203 45.9141 46.9219C45.9375 46.8867 45.9609 46.8555 45.9844 46.8203L46.2852 46.9414C46.2812 46.9492 46.2813 46.957 46.2773 46.9648C46.2773 46.9648 46.2773 46.9687 46.2734 46.9687C46.2656 46.9844 46.2656 46.9961 46.2578 47.0117C46.2461 47.0508 46.2305 47.0859 46.2227 47.1211C46.2188 47.1367 46.2187 47.1484 46.2148 47.1641C46.207 47.1992 46.2031 47.2383 46.2031 47.2734C46.2031 47.2852 46.2031 47.2969 46.207 47.3086C46.207 47.3437 46.2109 47.3789 46.2148 47.4102C46.2148 47.4219 46.2188 47.4297 46.2227 47.4414C46.2305 47.4727 46.2383 47.5039 46.25 47.5352C46.2539 47.5469 46.2617 47.5547 46.2656 47.5625C46.2773 47.5898 46.293 47.6172 46.3086 47.6445C46.3164 47.6562 46.3242 47.6641 46.332 47.6758C46.3477 47.6992 46.3633 47.7187 46.3828 47.7383C46.3945 47.7539 46.4102 47.7656 46.4258 47.7773C46.4414 47.7891 46.4531 47.8047 46.4688 47.8164C46.5579 47.8858 46.6603 47.9363 46.7695 47.9648C46.7891 47.9687 46.8086 47.9727 46.832 47.9766C46.875 47.9844 46.9219 47.9883 46.9609 47.9883C46.9805 47.9883 47.0039 47.9844 47.0234 47.9805C47.0625 47.9766 47.1016 47.9648 47.1406 47.9531C47.1602 47.9453 47.1758 47.9414 47.1914 47.9336C47.2305 47.918 47.2695 47.8945 47.3086 47.8711L47.332 47.8594L47.3359 47.8555C47.4727 47.7617 47.5898 47.6289 47.6875 47.5L47.7773 47.5352C47.7617 47.5508 47.7461 47.5625 47.7344 47.5742C47.293 47.9805 47.4414 48.1758 47.6328 48.4023C47.6406 48.4141 47.6562 48.4219 47.6641 48.4297C47.6641 48.4297 47.668 48.4336 47.668 48.4375C47.6758 48.4414 47.6797 48.4492 47.6875 48.4531C47.7617 48.5195 47.8438 48.5703 47.9375 48.6016C47.9531 48.6055 47.9648 48.6133 47.9805 48.6172C48.0078 48.625 48.0313 48.6289 48.0586 48.6367C48.0781 48.6406 48.0977 48.6406 48.1172 48.6445C48.1406 48.6484 48.1641 48.6484 48.1875 48.6523C48.2266 48.6523 48.2695 48.6523 48.3086 48.6445C48.3281 48.6406 48.3438 48.6367 48.3594 48.6328C48.3867 48.6289 48.4141 48.6211 48.4375 48.6133C48.457 48.6055 48.4727 48.6016 48.4883 48.5937C48.4961 48.5898 48.5078 48.5859 48.5156 48.582C48.2812 48.7266 47.875 48.9023 47.4805 48.6562C47.4805 48.6562 47.2266 48.4727 47.207 48.2773C46.7773 48.5156 46.1836 48.0703 46.1836 48.0703C45.9063 47.8555 45.832 47.6172 45.8398 47.4102C45.6992 47.4961 45.5469 47.5273 45.3945 47.5312C45.3281 47.418 45.2539 47.3516 45.2539 47.3516L44.918 47.2109V47.2109ZM43.7773 42.3125C43.7773 42.3125 43.7891 42.3125 43.8047 42.3086C43.7969 42.3125 43.7852 42.3125 43.7773 42.3125C43.7773 42.3125 43.7773 42.3164 43.7773 42.3125Z" fill="#E48C15"/>
<path d="M46.2188 47.1641C46.211 47.1992 46.2071 47.2383 46.2071 47.2734C46.2071 47.2383 46.2149 47.1992 46.2188 47.1641ZM46.211 47.3086C46.211 47.3438 46.2149 47.3789 46.2188 47.4102C46.211 47.3789 46.211 47.3438 46.211 47.3086ZM46.336 47.6758C46.3517 47.6992 46.3673 47.7188 46.3868 47.7383C46.3673 47.7188 46.3517 47.6953 46.336 47.6758ZM46.2618 47.0117C46.2501 47.0508 46.2345 47.0859 46.2266 47.1211C46.2345 47.0859 46.2462 47.0508 46.2618 47.0117ZM46.2266 47.4414C46.2345 47.4727 46.2423 47.5039 46.254 47.5352C46.2423 47.5039 46.2345 47.4727 46.2266 47.4414ZM48.1212 48.6484C48.1446 48.6523 48.1681 48.6523 48.1915 48.6563C48.1681 48.6523 48.1446 48.6484 48.1212 48.6484ZM48.3126 48.6445C48.3321 48.6406 48.3477 48.6367 48.3634 48.6328C48.3477 48.6406 48.3321 48.6445 48.3126 48.6445ZM48.8165 45.7891C48.8165 45.7891 48.8829 45.8672 48.7032 46.3203C48.7032 46.3203 48.4415 46.9727 47.7891 47.8398C47.5509 48.1719 47.5743 48.332 47.6681 48.4336C47.6563 48.4219 47.6446 48.4141 47.6368 48.4063C47.4454 48.1797 47.297 47.9844 47.7384 47.5781C47.7501 47.5664 47.7657 47.5508 47.7813 47.5391L47.6915 47.5039C47.5938 47.6328 47.4767 47.7617 47.3399 47.8594C47.5352 47.668 47.9806 47.1563 48.629 45.9844C48.629 45.9805 48.7579 45.6875 48.8165 45.7891V45.7891ZM44.5431 47.2813C43.9024 46.918 43.7774 46.5352 43.7774 46.2852C43.4454 46.4922 43.0352 46.3359 43.0352 46.3359C42.3126 46.0156 42.336 45.3086 42.336 45.3086C42.3712 44.3438 43.3165 42.9648 43.7774 42.3164C43.7892 42.3125 43.797 42.3125 43.8087 42.3086C43.8712 42.3008 44.0352 42.2852 44.0704 42.2812C43.6563 42.8984 43.172 43.8164 42.9766 44.1914C42.6641 44.793 42.4571 45.3828 43.0157 45.8047C43.2735 46 43.5079 46.0273 43.6993 45.9492C43.8868 45.7969 44.0548 45.4844 44.0548 45.4844C44.7931 44.1289 45.3048 43.4492 45.3048 43.4492C45.3556 43.3906 45.4649 43.2031 45.6173 43.1094C45.8126 42.9922 45.754 43.1992 45.754 43.1992C44.8946 44.5391 44.3712 45.6094 44.3712 45.6094C44.1485 46.0156 44.1876 46.3047 44.2501 46.4648C44.3243 46.6602 44.7501 46.9336 44.7501 46.9336C45.6173 47.4531 46.0157 46.7617 46.0157 46.7617C46.0157 46.7617 46.5235 46.125 47.3751 44.5352C47.3751 44.5352 47.5079 44.3164 47.5899 44.4688C47.5899 44.4688 47.5431 44.7383 47.4181 44.9922C47.4181 44.9922 47.0313 45.9141 46.2813 46.9727C46.2852 46.9648 46.2852 46.957 46.2891 46.9492L45.9884 46.8281C45.9649 46.8633 45.9415 46.8945 45.9181 46.9297C45.6407 47.3281 45.0587 47.1875 44.7267 47L44.922 47.2188L45.2618 47.3594C45.2618 47.3594 45.336 47.4258 45.4024 47.5391C44.9571 47.5469 44.5431 47.2813 44.5431 47.2813V47.2813ZM46.4298 47.7773C46.4454 47.7891 46.4571 47.8047 46.4727 47.8164C46.4571 47.8047 46.4415 47.793 46.4298 47.7773ZM48.4454 48.6133C48.4649 48.6055 48.4806 48.6016 48.4962 48.5938C48.4806 48.6016 48.461 48.6094 48.4454 48.6133ZM46.5626 47.8828C46.6329 47.9258 46.7032 47.9492 46.7696 47.9688C46.6979 47.9471 46.6285 47.9184 46.5626 47.8828ZM47.0235 47.9844C47.0626 47.9805 47.1016 47.9688 47.1407 47.957C47.1016 47.9688 47.0626 47.9766 47.0235 47.9844ZM47.1915 47.9375C47.2306 47.9219 47.2696 47.8984 47.3087 47.875C47.2696 47.8984 47.2306 47.9219 47.1915 47.9375ZM47.9845 48.6211C48.0118 48.6289 48.0352 48.6328 48.0626 48.6406C48.036 48.6364 48.0099 48.6299 47.9845 48.6211V48.6211Z" fill="#E48C15"/>
<path d="M40.9648 29.1836H9.03516C7.63672 29.1836 6.49609 30.3281 6.49609 31.7227V51.7695C6.49609 53.168 7.64063 54.3086 9.03516 54.3086H40.9688C41.6422 54.3086 42.288 54.0411 42.7641 53.5649C43.2403 53.0888 43.5078 52.4429 43.5078 51.7695V31.7227C43.5078 30.3203 42.3711 29.1836 40.9648 29.1836V29.1836Z" fill="#CFDFD2"/>
<path d="M30.8124 48.9648C30.2538 47.0469 30.0194 43.8516 29.9218 41.6172C29.8919 40.9379 29.6011 40.2964 29.1099 39.8263C28.6186 39.3562 27.965 39.0938 27.2851 39.0938H23.7929C23.1128 39.0931 22.4587 39.3553 21.9674 39.8256C21.476 40.2958 21.1854 40.9377 21.1562 41.6172C21.0585 43.8516 20.8241 47.0508 20.2655 48.9648C19.3398 52.1406 17.8905 54.7188 20.4062 54.7188H30.6718C33.1874 54.7188 31.7382 52.1406 30.8124 48.9648V48.9648Z" fill="#FFED4D"/>
</g>
<defs>
<radialGradient id="paint0_radial_1038_58" cx="0" cy="0" r="1" gradientUnits="userSpaceOnUse" gradientTransform="translate(25.2084 33.2358) scale(15.351 13.7895)">
<stop stop-color="white"/>
<stop offset="1" stop-color="white" stop-opacity="0"/>
</radialGradient>
<clipPath id="clip0_1038_58">
<rect width="50" height="50" fill="white"/>
</clipPath>
</defs>
</svg>
