<svg width="50" height="50" viewBox="0 0 50 50" fill="none" xmlns="http://www.w3.org/2000/svg">
<path d="M42.3828 6.85536C41.9647 6.56816 41.4827 6.38774 40.9788 6.32986C40.4749 6.27198 39.9645 6.3384 39.4922 6.52333C36.7578 7.59755 31.2109 9.37489 25 9.37489C18.7891 9.37489 13.2422 7.59755 10.5078 6.52333C10.0344 6.33919 9.52323 6.27323 9.01858 6.33117C8.51393 6.38911 8.031 6.56919 7.61163 6.85582C7.19226 7.14245 6.84909 7.527 6.61183 7.97615C6.37457 8.4253 6.25037 8.92552 6.25 9.43348V20.3124C6.25 27.3046 8.14453 33.8866 11.5625 38.8671C14.9805 43.8475 19.8828 46.8749 25 46.8749C30.1172 46.8749 34.9023 44.0429 38.4375 38.8671C41.9727 33.6913 43.75 27.3046 43.75 20.3124V9.43348C43.7508 8.92463 43.6265 8.42338 43.3881 7.97383C43.1497 7.52427 42.8045 7.14019 42.3828 6.85536ZM15.6445 26.035C15.5087 26.1891 15.3438 26.3148 15.1593 26.405C14.9748 26.4953 14.7743 26.5483 14.5694 26.561C14.3644 26.5737 14.1589 26.5458 13.9647 26.479C13.7705 26.4123 13.5913 26.3078 13.4375 26.1718C13.2849 26.0346 13.1607 25.8686 13.0722 25.6835C12.9837 25.4983 12.9326 25.2975 12.9217 25.0925C12.9108 24.8876 12.9404 24.6825 13.0088 24.489C13.0772 24.2955 13.1831 24.1173 13.3203 23.9647C13.9031 23.3071 14.6188 22.7806 15.4201 22.42C16.2214 22.0594 17.0901 21.873 17.9688 21.873C18.8474 21.873 19.7161 22.0594 20.5174 22.42C21.3187 22.7806 22.0344 23.3071 22.6172 23.9647C22.7544 24.1173 22.8603 24.2955 22.9287 24.489C22.9971 24.6825 23.0267 24.8876 23.0158 25.0925C23.0049 25.2975 22.9538 25.4983 22.8653 25.6835C22.7768 25.8686 22.6526 26.0346 22.5 26.1718C22.2132 26.4223 21.8457 26.561 21.4648 26.5624C21.2433 26.5626 21.0242 26.5157 20.8222 26.4248C20.6201 26.3339 20.4397 26.201 20.293 26.035C19.9999 25.709 19.6415 25.4482 19.2411 25.2697C18.8407 25.0912 18.4072 24.999 17.9688 24.999C17.5303 24.999 17.0968 25.0912 16.6964 25.2697C16.296 25.4482 15.9376 25.709 15.6445 26.035ZM31.0547 35.6835C29.2578 36.8687 27.1526 37.5005 25 37.5005C22.8474 37.5005 20.7422 36.8687 18.9453 35.6835C18.6049 35.4497 18.3694 35.0921 18.2891 34.687C18.2088 34.2819 18.2901 33.8615 18.5156 33.5155C18.6282 33.3434 18.7737 33.1951 18.9437 33.0793C19.1137 32.9635 19.3049 32.8824 19.5063 32.8407C19.7077 32.7989 19.9154 32.7974 20.1175 32.8361C20.3195 32.8748 20.5119 32.953 20.6836 33.0663C21.9615 33.9195 23.4635 34.3748 25 34.3748C26.5365 34.3748 28.0385 33.9195 29.3164 33.0663C29.4881 32.953 29.6805 32.8748 29.8825 32.8361C30.0846 32.7974 30.2923 32.7989 30.4937 32.8407C30.6951 32.8824 30.8863 32.9635 31.0563 33.0793C31.2263 33.1951 31.3718 33.3434 31.4844 33.5155C31.7099 33.8615 31.7912 34.2819 31.7109 34.687C31.6306 35.0921 31.3951 35.4497 31.0547 35.6835ZM36.5625 26.1718C36.2757 26.4223 35.9082 26.561 35.5273 26.5624C35.3058 26.5626 35.0867 26.5157 34.8847 26.4248C34.6826 26.3339 34.5022 26.201 34.3555 26.035C34.0624 25.709 33.704 25.4482 33.3036 25.2697C32.9032 25.0912 32.4697 24.999 32.0312 24.999C31.5928 24.999 31.1593 25.0912 30.7589 25.2697C30.3585 25.4482 30.0001 25.709 29.707 26.035C29.5712 26.1891 29.4063 26.3148 29.2218 26.405C29.0373 26.4953 28.8368 26.5483 28.6319 26.561C28.4269 26.5737 28.2214 26.5458 28.0272 26.479C27.833 26.4123 27.6538 26.3078 27.5 26.1718C27.3474 26.0346 27.2232 25.8686 27.1347 25.6835C27.0462 25.4983 26.9951 25.2975 26.9842 25.0925C26.9733 24.8876 27.0029 24.6825 27.0713 24.489C27.1397 24.2955 27.2456 24.1173 27.3828 23.9647C27.9656 23.3071 28.6813 22.7806 29.4826 22.42C30.2839 22.0594 31.1526 21.873 32.0312 21.873C32.9099 21.873 33.7786 22.0594 34.5799 22.42C35.3812 22.7806 36.0969 23.3071 36.6797 23.9647C36.8169 24.1173 36.9228 24.2955 36.9912 24.489C37.0596 24.6825 37.0892 24.8876 37.0783 25.0925C37.0674 25.2975 37.0163 25.4983 36.9278 25.6835C36.8393 25.8686 36.7151 26.0346 36.5625 26.1718Z" fill="#B8D8C0"/>
</svg>
