<svg width="26" height="26" viewBox="0 0 26 26" fill="none" xmlns="http://www.w3.org/2000/svg">
<path d="M18.9342 16.9363C20.4761 14.8323 21.1667 12.2237 20.8678 9.63238C20.569 7.04107 19.3027 4.65816 17.3224 2.96038C15.3421 1.26259 12.7937 0.375142 10.1872 0.475577C7.58061 0.576012 5.10809 1.65692 3.26428 3.50206C1.42046 5.3472 0.34132 7.82048 0.242751 10.4271C0.144181 13.0337 1.03345 15.5814 2.73265 17.5606C4.43185 19.5397 6.81567 20.8042 9.40719 21.1012C11.9987 21.3982 14.6068 20.7058 16.7097 19.1624H16.7081C16.7559 19.2261 16.8068 19.2866 16.8642 19.3455L22.9947 25.4761C23.2933 25.7749 23.6984 25.9428 24.1208 25.943C24.5432 25.9431 24.9483 25.7755 25.2471 25.4769C25.5459 25.1783 25.7139 24.7733 25.714 24.3509C25.7142 23.9285 25.5465 23.5233 25.2479 23.2245L19.1174 17.0939C19.0604 17.0363 18.9992 16.9831 18.9342 16.9347V16.9363ZM19.3451 10.8153C19.3451 11.9654 19.1185 13.1042 18.6784 14.1668C18.2383 15.2294 17.5932 16.1948 16.7799 17.0081C15.9667 17.8213 15.0012 18.4664 13.9386 18.9066C12.8761 19.3467 11.7372 19.5732 10.5871 19.5732C9.43699 19.5732 8.29814 19.3467 7.23557 18.9066C6.17301 18.4664 5.20754 17.8213 4.39429 17.0081C3.58103 16.1948 2.93593 15.2294 2.4958 14.1668C2.05567 13.1042 1.82914 11.9654 1.82914 10.8153C1.82914 8.49251 2.75185 6.26489 4.39429 4.62245C6.03672 2.98001 8.26434 2.0573 10.5871 2.0573C12.9099 2.0573 15.1375 2.98001 16.7799 4.62245C18.4223 6.26489 19.3451 8.49251 19.3451 10.8153Z" fill="#9EAEAA"/>
</svg>
