<svg width="60" height="60" viewBox="0 0 60 60" fill="none" xmlns="http://www.w3.org/2000/svg">
<path d="M60 45C60 46.7681 59.2976 48.4638 58.0474 49.7141C56.7971 50.9643 55.1014 51.6667 53.3333 51.6667H6.66667C4.89856 51.6667 3.20286 50.9643 1.95262 49.7141C0.702379 48.4638 0 46.7681 0 45V15C0 13.2319 0.702379 11.5362 1.95262 10.286C3.20286 9.03575 4.89856 8.33337 6.66667 8.33337H53.3333C55.1014 8.33337 56.7971 9.03575 58.0474 10.286C59.2976 11.5362 60 13.2319 60 15V45Z" fill="#009B3A"/>
<path d="M54.5465 30L29.9998 48.54L5.45312 30L29.9998 11.4584L54.5465 30Z" fill="#FEDF01"/>
<path d="M29.9601 40.6365C35.9045 40.6365 40.7234 35.8176 40.7234 29.8732C40.7234 23.9288 35.9045 19.1099 29.9601 19.1099C24.0157 19.1099 19.1968 23.9288 19.1968 29.8732C19.1968 35.8176 24.0157 40.6365 29.9601 40.6365Z" fill="#002776"/>
<path d="M20.4618 24.8116C19.9028 25.865 19.5242 27.0047 19.3418 28.1832C26.0001 27.6999 35.0368 31.3349 38.9151 35.8416C39.5851 34.8349 40.0818 33.7082 40.3868 32.5016C35.6001 27.8216 27.1918 24.7849 20.4618 24.8116V24.8116Z" fill="#CBE9D4"/>
<path d="M20 30.3884H21.6667V32.0551H20V30.3884ZM21.6667 33.7218H23.3333V35.3884H21.6667V33.7218Z" fill="#88C9F9"/>
<path d="M25 30.3884H26.6667V32.0551H25V30.3884ZM28.3333 32.0551H30V33.7217H28.3333V32.0551ZM35 35.3884H36.6667V37.0551H35V35.3884ZM30 37.0551H31.6667V38.7217H30V37.0551ZM35 27.0551H36.6667V28.7217H35V27.0551Z" fill="#55ACEE"/>
<path d="M31.6665 33.7217H33.3332V35.3883H31.6665V33.7217Z" fill="#3B88C3"/>
</svg>
